<?xml version="1.0" encoding="iso-8859-1"?>
<!-- Uploaded to: SVG Repo, www.svgrepo.com, Generator: SVG Repo Mixer Tools -->
<svg height="30px" width="100px" version="1.1" id="Layer_1" xmlns="http://www.w3.org/2000/svg" xmlns:xlink="http://www.w3.org/1999/xlink" 
	 viewBox="0 0 512.006 512.006" xml:space="preserve">
<g>
	<path style="fill:#00224D;" d="M56.003,512.002c-3.072,0-6.14-1.172-8.484-3.516c-4.688-4.684-4.688-12.284,0-16.968l80-80
		c4.688-4.688,12.28-4.688,16.968,0c4.688,4.684,4.688,12.284,0,16.968l-80,80C62.143,510.83,59.075,512.002,56.003,512.002z"/>
	<path style="fill:#00224D;" d="M456.003,512.002c3.076,0,6.14-1.172,8.484-3.516c4.688-4.684,4.688-12.284,0-16.968l-80-80
		c-4.688-4.688-12.28-4.688-16.968,0c-4.688,4.684-4.688,12.284,0,16.968l80,80C449.863,510.83,452.931,512.002,456.003,512.002z"/>
</g>
<circle style="fill:#4C3BCF;" cx="256.003" cy="292.002" r="220"/>
<path style="fill:#4C3BCF;" d="M256.003,72.002c-2.044,0-4.064,0.092-6.088,0.156c118.672,3.236,213.9,100.388,213.9,219.844
	s-95.232,216.604-213.908,219.844c2.032,0.056,4.052,0.156,6.088,0.156c121.5,0,220-98.5,220-220S377.503,72.002,256.003,72.002z"/>
<circle style="fill:#F5F5F5;" cx="256.003" cy="292.002" r="180"/>
<path style="fill:#E6E6E6;" d="M87.815,292.002c0-97.428,77.424-176.732,174.092-179.852c-1.964-0.064-3.924-0.148-5.908-0.148
	c-99.408,0-180,80.584-180,180c0,99.412,80.592,180,180,180c1.98,0,3.94-0.084,5.912-0.148
	C165.243,468.73,87.815,389.426,87.815,292.002z"/>
<circle style="fill:#00224D;" cx="256.003" cy="292.002" r="20"/>
<path style="fill:#4C3BCF;" d="M330.623,31.122c-41.492,41.488-4.808,72.084,36.688,113.576
	c41.492,41.496,72.084,78.176,113.576,36.684s41.492-108.768,0-150.256C439.395-10.37,372.115-10.37,330.623,31.122z"/>
<path style="fill:#4C3BCF;" d="M480.887,31.122c-23.8-23.804-56.084-33.924-87.128-30.416c23.068,2.608,45.44,12.728,63.128,30.416
	c41.492,41.488,41.492,108.764,0,150.256c-8.504,8.504-16.548,13.68-24.32,16.252c15.252,4.808,30.816,1.252,48.32-16.252
	C522.379,139.89,522.379,72.61,480.887,31.122z"/>
<g>
	<path style="fill:#00224D;" d="M255.815,128.002c0,0-16,28-16,40c0,20,16,124,16,124s16-104,16-124
		C271.815,156.002,255.815,128.002,255.815,128.002z"/>
	<path style="fill:#00224D;" d="M373.519,241.706c0,0-25.012-6.712-33.036-3.284c-13.38,5.72-84.668,53.58-84.668,53.58
		s83.864-18.436,97.24-24.152C361.083,264.418,373.519,241.706,373.519,241.706z"/>
</g>
<path style="fill:#4C3BCF;" d="M181.383,31.122c41.492,41.488,4.808,72.084-36.688,113.576
	c-41.492,41.496-72.084,78.176-113.576,36.684s-41.492-108.768,0-150.256C72.611-10.37,139.891-10.37,181.383,31.122z"/>
<path style="fill:#4C3BCF;" d="M181.383,31.122c-23.8-23.804-56.084-33.924-87.124-30.416c23.064,2.608,45.436,12.728,63.124,30.416
	c41.492,41.488,4.808,72.084-36.688,113.576c-23.988,23.992-44.336,46.336-65.252,52.932c30.164,9.952,56.256-19.944,89.252-52.932
	C186.191,103.202,222.875,72.61,181.383,31.122z"/>
</svg>